<svg width="21" height="21" viewBox="0 0 21 21" fill="none" xmlns="http://www.w3.org/2000/svg">
<path d="M10.5 20C15.7467 20 20 15.7467 20 10.5C20 5.25329 15.7467 1 10.5 1C5.25329 1 1 5.25329 1 10.5C1 15.7467 5.25329 20 10.5 20Z" stroke="#152D4A" stroke-width="2" stroke-miterlimit="10" stroke-linecap="round" stroke-linejoin="round"/>
<path d="M7.35205 9.16711C7.35205 8.44916 7.56495 7.74734 7.96382 7.15039C8.36269 6.55344 8.92961 6.08817 9.59291 5.81343C10.2562 5.53868 10.9861 5.4668 11.6902 5.60686C12.3944 5.74692 13.0412 6.09265 13.5488 6.60031C14.0565 7.10798 14.4022 7.75478 14.5423 8.45893C14.6824 9.16308 14.6105 9.89296 14.3357 10.5563C14.061 11.2195 13.5957 11.7865 12.9988 12.1853C12.4018 12.5842 11.7 12.7971 10.9821 12.7971V13.7041" stroke="#152D4A" stroke-width="2" stroke-miterlimit="10" stroke-linecap="round" stroke-linejoin="round"/>
</svg>
