<svg width="24" height="25" viewBox="0 0 24 25" fill="none" xmlns="http://www.w3.org/2000/svg">
<path d="M5.00002 20.0005C4.99269 20.3965 5.06529 20.7899 5.21346 21.1572C5.36163 21.5245 5.58233 21.8581 5.86238 22.1381C6.14243 22.4182 6.47607 22.6389 6.84335 22.7871C7.21064 22.9352 7.60403 23.0078 8.00002 23.0005H20C20.396 23.0078 20.7894 22.9352 21.1567 22.7871C21.524 22.6389 21.8576 22.4182 22.1376 22.1381C22.4177 21.8581 22.6384 21.5245 22.7866 21.1572C22.9347 20.7899 23.0073 20.3965 23 20.0005V8.0005C23.0073 7.60452 22.9347 7.21113 22.7866 6.84384C22.6384 6.47655 22.4177 6.14292 22.1376 5.86287C21.8576 5.58282 21.524 5.36211 21.1567 5.21394C20.7894 5.06577 20.396 4.99318 20 5.0005H8.00002C7.60403 4.99318 7.21064 5.06577 6.84335 5.21394C6.47607 5.36211 6.14243 5.58282 5.86238 5.86287C5.58233 6.14292 5.36163 6.47655 5.21346 6.84384C5.06529 7.21113 4.99269 7.60452 5.00002 8.0005V20.0005Z" stroke="#959DAD" stroke-width="2" stroke-miterlimit="10" stroke-linecap="round" stroke-linejoin="round"/>
<path d="M19 5.0005V4.0005C19.0073 3.60452 18.9347 3.21113 18.7866 2.84384C18.6384 2.47655 18.4177 2.14292 18.1376 1.86287C17.8576 1.58282 17.524 1.36211 17.1567 1.21394C16.7894 1.06577 16.396 0.993177 16 1.0005H4.00002C3.60403 0.993177 3.21064 1.06577 2.84335 1.21394C2.47607 1.36211 2.14243 1.58282 1.86238 1.86287C1.58233 2.14292 1.36163 2.47655 1.21346 2.84384C1.06529 3.21113 0.992689 3.60452 1.00002 4.0005V16.0005C0.992689 16.3965 1.06529 16.7899 1.21346 17.1572C1.36163 17.5245 1.58233 17.8581 1.86238 18.1381C2.14243 18.4182 2.47607 18.6389 2.84335 18.7871C3.21064 18.9352 3.60403 19.0078 4.00002 19.0005H5.00002" stroke="#959DAD" stroke-width="2" stroke-miterlimit="10" stroke-linecap="round" stroke-linejoin="round"/>
<path d="M14 10V18" stroke="#959DAD" stroke-width="2" stroke-miterlimit="10" stroke-linecap="round" stroke-linejoin="round"/>
<path d="M18 14H10" stroke="#959DAD" stroke-width="2" stroke-miterlimit="10" stroke-linecap="round" stroke-linejoin="round"/>
</svg>
