<svg width="24" height="19" viewBox="0 0 24 19" fill="none" xmlns="http://www.w3.org/2000/svg">
<path d="M20 1.0005H4.00002C3.60403 0.993177 3.21063 1.06577 2.84334 1.21394C2.47605 1.36211 2.14243 1.58281 1.86238 1.86286C1.58233 2.14291 1.36163 2.47655 1.21346 2.84384C1.06529 3.21113 0.992689 3.60452 1.00002 4.0005V14.0005C0.992689 14.3965 1.06529 14.7899 1.21346 15.1572C1.36163 15.5245 1.58233 15.8581 1.86238 16.1381C2.14243 16.4182 2.47605 16.6389 2.84334 16.7871C3.21063 16.9352 3.60403 17.0078 4.00002 17.0005H20C20.396 17.0078 20.7894 16.9352 21.1567 16.7871C21.524 16.6389 21.8576 16.4182 22.1376 16.1381C22.4177 15.8581 22.6384 15.5245 22.7866 15.1572C22.9347 14.7899 23.0073 14.3965 23 14.0005V4.0005C23.0073 3.60452 22.9347 3.21113 22.7866 2.84384C22.6384 2.47655 22.4177 2.14291 22.1376 1.86286C21.8576 1.58281 21.524 1.36211 21.1567 1.21394C20.7894 1.06577 20.396 0.993177 20 1.0005V1.0005Z" stroke="#959DAD" stroke-width="2" stroke-miterlimit="10" stroke-linecap="round" stroke-linejoin="round"/>
<path d="M6 7H13" stroke="#959DAD" stroke-width="2" stroke-miterlimit="10" stroke-linecap="round" stroke-linejoin="round"/>
<path d="M6 11H18" stroke="#959DAD" stroke-width="2" stroke-miterlimit="10" stroke-linecap="round" stroke-linejoin="round"/>
</svg>
