<svg xmlns="http://www.w3.org/2000/svg" width="61.076" height="19.815" viewBox="0 0 61.076 19.815">
  <g id="Group_3" data-name="Group 3" transform="translate(0 0)">
    <path id="Path_11" data-name="Path 11" d="M26.477,19.484H21.493L24.608.343h4.984ZM17.3.343,12.549,13.507l-.563-2.836h0l-1.675-8.6A2.134,2.134,0,0,0,7.948.343H.093L0,.665A18.638,18.638,0,0,1,5.214,2.853l4.331,16.63h5.193L22.666.343ZM56.5,19.484h4.578L57.085.343H53.079a2.294,2.294,0,0,0-2.3,1.425L43.345,19.484h5.2l1.039-2.842h6.334l.583,2.842Zm-5.484-6.772,2.618-7.164L55.1,12.712Zm-7.28-7.765.711-4.11A14.363,14.363,0,0,0,39.964,0c-2.473,0-8.346,1.08-8.346,6.337,0,4.946,6.894,5.007,6.894,7.605s-6.183,2.131-8.224.493l-.74,4.3a13.986,13.986,0,0,0,5.626,1.08c3.4,0,8.531-1.762,8.531-6.555,0-4.978-6.955-5.44-6.955-7.605s4.854-1.884,6.984-.708Z" transform="translate(0 0)" fill="#2566af"/>
  </g>
</svg>
