
<svg width="38" height="12" viewBox="0 0 38 12" fill="none" xmlns="http://www.w3.org/2000/svg">
<path d="M16.496 11.685H13.508L15.375 0.204952H18.364L16.496 11.685ZM10.996 0.204952L8.14401 8.10495L7.80701 6.40495L6.80101 1.24195C6.74178 0.920913 6.56203 0.63467 6.29858 0.441872C6.03514 0.249073 5.70793 0.16431 5.38401 0.204952H0.673014L0.614014 0.404953C1.71664 0.680855 2.77076 1.12327 3.74001 1.71695L6.34001 11.69H9.45401L14.214 0.204952H10.993H10.996ZM34.501 11.685H37.245L34.853 0.204952H32.453C32.1619 0.182324 31.8711 0.253125 31.6229 0.407063C31.3747 0.561 31.1821 0.790058 31.073 1.06096L26.614 11.685H29.73L30.353 9.97995H34.153L34.501 11.685ZM31.214 7.62495L32.784 3.32495L33.667 7.62495H31.214ZM26.848 2.96695L27.275 0.501953C26.4113 0.193461 25.5039 0.0246753 24.587 0.00195313C23.104 0.00195312 19.582 0.649952 19.582 3.80195C19.582 6.76795 23.716 6.80195 23.716 8.36195C23.716 9.92195 20.008 9.64095 18.784 8.66195L18.34 11.24C19.4078 11.6868 20.5567 11.9074 21.714 11.888C23.754 11.888 26.83 10.832 26.83 7.95795C26.83 4.97295 22.659 4.69495 22.659 3.39795C22.659 2.10095 25.57 2.26695 26.849 2.97095L26.848 2.96695Z" fill="#2566AF"/>
<path d="M7.80692 6.40246L6.80092 1.23946C6.74101 0.918774 6.56083 0.633102 6.29724 0.44089C6.03365 0.248678 5.70657 0.164457 5.38292 0.205458H0.67292L0.61792 0.399458C2.24017 0.812434 3.7536 1.57222 5.05392 2.62646C6.28971 3.61919 7.23975 4.92225 7.80692 6.40246Z" fill="#E6A540"/>
</svg>
