
<svg width="21" height="20" viewBox="0 0 21 20" fill="none" xmlns="http://www.w3.org/2000/svg">
<path d="M2.90499 5.14258H18.145C18.6574 5.15205 19.1452 5.36432 19.5014 5.73286C19.8575 6.10139 20.053 6.59612 20.045 7.10858V16.9426C20.053 17.455 19.8575 17.9498 19.5014 18.3183C19.1452 18.6868 18.6574 18.8991 18.145 18.9086H2.90499C2.39169 18.9004 1.90264 18.6887 1.5454 18.32C1.18816 17.9514 0.991973 17.4559 0.999992 16.9426V7.10858C0.991973 6.59527 1.18816 6.0998 1.5454 5.73111C1.90264 5.36243 2.39169 5.15074 2.90499 5.14258V5.14258Z" stroke="black" stroke-linecap="round" stroke-linejoin="round"/>
<path d="M14.335 18.906V3.28503C14.3382 3.03171 14.2914 2.78024 14.1974 2.54499C14.1034 2.30973 13.9639 2.09531 13.787 1.91395C13.6101 1.73259 13.3992 1.58786 13.1664 1.48801C12.9335 1.38817 12.6833 1.33516 12.43 1.33203H8.61999C8.36667 1.33516 8.11644 1.38817 7.8836 1.48801C7.65076 1.58786 7.43987 1.73259 7.26297 1.91395C7.08607 2.09531 6.94663 2.30973 6.85261 2.54499C6.75858 2.78024 6.71182 3.03171 6.71499 3.28503V18.906" stroke="black" stroke-linecap="round" stroke-linejoin="round"/>
</svg>
