<svg width="20" height="20" viewBox="0 0 20 20" fill="none" xmlns="http://www.w3.org/2000/svg">
<path d="M0.999913 16.1554C0.994078 16.4713 1.05199 16.7851 1.17019 17.078C1.28838 17.371 1.46443 17.6371 1.68781 17.8605C1.91119 18.0839 2.17733 18.2599 2.4703 18.3781C2.76326 18.4963 3.07705 18.5542 3.39291 18.5484H16.1549C16.4708 18.5542 16.7846 18.4963 17.0775 18.3781C17.3705 18.2599 17.6366 18.0839 17.86 17.8605C18.0834 17.6371 18.2594 17.371 18.3776 17.078C18.4958 16.7851 18.5537 16.4713 18.5479 16.1554V3.3934C18.5537 3.07754 18.4958 2.76375 18.3776 2.47078C18.2594 2.17781 18.0834 1.91168 17.86 1.6883C17.6366 1.46492 17.3705 1.28886 17.0775 1.17067C16.7846 1.05248 16.4708 0.994566 16.1549 1.0004H3.39291C3.07705 0.994566 2.76326 1.05248 2.4703 1.17067C2.17733 1.28886 1.91119 1.46492 1.68781 1.6883C1.46443 1.91168 1.28838 2.17781 1.17019 2.47078C1.05199 2.76375 0.994078 3.07754 0.999913 3.3934V16.1554Z" stroke="#152D4A" stroke-width="2" stroke-miterlimit="10" stroke-linecap="round" stroke-linejoin="round"/>
<path d="M4 14H16" stroke="#152D4A" stroke-width="2" stroke-miterlimit="10" stroke-linecap="round" stroke-linejoin="round"/>
<path d="M8.97607 5.78711L10.5761 7.38711L8.97607 8.97711" stroke="#152D4A" stroke-width="2" stroke-miterlimit="10" stroke-linecap="round" stroke-linejoin="round"/>
</svg>
