
<svg width="236" height="199" viewBox="0 0 236 199" fill="none" xmlns="http://www.w3.org/2000/svg">
<path d="M85.7991 69.1875C72.4439 72.8824 60.6686 80.8544 52.2777 91.8819C43.8868 102.909 39.3433 116.384 39.3433 130.241C39.3433 144.098 43.8868 157.573 52.2777 168.6C60.6686 179.628 72.4439 187.6 85.7991 191.294C99.1536 187.599 110.928 179.627 119.319 168.599C127.709 157.572 132.252 144.097 132.252 130.241C132.252 116.385 127.709 102.91 119.319 91.8828C110.928 80.8553 99.1536 72.883 85.7991 69.1875Z" fill="#FFE600"/>
<path d="M145.689 146.601C141.486 130.912 143.471 114.208 151.233 99.9404C158.996 85.6731 171.944 74.9335 187.4 69.9413C178.027 66.9125 168.077 66.1118 158.34 67.6028C148.603 69.0937 139.348 72.8353 131.311 78.5301C123.274 84.2248 116.675 91.7158 112.041 100.408C107.406 109.1 104.863 118.753 104.613 128.6C104.363 138.447 106.413 148.217 110.601 157.132C114.788 166.048 120.998 173.864 128.736 179.96C136.474 186.055 145.527 190.261 155.176 192.244C164.824 194.227 174.803 193.933 184.317 191.383C185.355 191.106 186.378 190.804 187.388 190.477C177.325 187.23 168.237 181.513 160.952 173.849C153.668 166.184 148.421 156.816 145.689 146.601Z" fill="white"/>
<path d="M229.098 113.819C226.367 103.604 221.119 94.2361 213.835 86.5712C206.55 78.9063 197.461 73.1889 187.398 69.9414C174.654 74.0582 163.543 82.1089 155.661 92.9366C147.779 103.764 143.533 116.812 143.531 130.205C143.53 143.597 147.774 156.646 155.654 167.475C163.533 178.304 174.643 186.357 187.386 190.476C202.842 185.485 215.79 174.746 223.553 160.479C231.316 146.212 233.301 129.508 229.098 113.819Z" fill="#FFE600"/>
<path d="M51.871 118.499C51.8694 117.439 51.5005 116.413 50.8273 115.595C50.154 114.776 49.2179 114.217 48.1784 114.011C47.1389 113.805 46.0603 113.966 45.1261 114.466C44.192 114.967 43.46 115.775 43.055 116.754C42.6499 117.734 42.5968 118.823 42.9046 119.837C43.2124 120.851 43.8621 121.727 44.7431 122.315C45.6242 122.904 46.682 123.169 47.7366 123.066C48.7912 122.962 49.7773 122.497 50.527 121.748C51.3854 120.884 51.8683 119.716 51.871 118.499Z" fill="black"/>
<path d="M90.5569 113.908C89.4945 113.908 88.4648 114.276 87.6433 114.95C86.8219 115.624 86.2596 116.562 86.0522 117.604C85.8448 118.646 86.0052 119.728 86.506 120.665C87.0068 121.602 87.8171 122.336 88.7987 122.743C89.7804 123.149 90.8726 123.203 91.8893 122.894C92.906 122.586 93.7843 121.934 94.3744 121.051C94.9645 120.167 95.2301 119.106 95.1257 118.049C95.0213 116.992 94.5535 116.003 93.802 115.252C92.9389 114.395 91.7732 113.913 90.5569 113.908Z" fill="black"/>
<path d="M85.3841 140.453C84.802 140.298 84.1949 140.258 83.5976 140.337C83.0003 140.416 82.4244 140.612 81.9029 140.914C81.3813 141.215 80.9242 141.617 80.5577 142.095C80.1913 142.573 79.9226 143.119 79.7671 143.701C79.1308 146.092 77.7224 148.206 75.7609 149.713C73.7994 151.221 71.3946 152.039 68.9205 152.039C66.4465 152.039 64.0417 151.221 62.0802 149.713C60.1187 148.206 58.7103 146.092 58.0741 143.701C57.7596 142.525 56.991 141.522 55.9371 140.913C54.8832 140.304 53.6305 140.138 52.4546 140.453C51.2786 140.767 50.2757 141.536 49.6665 142.59C49.0573 143.643 48.8916 144.896 49.206 146.072C50.3624 150.418 52.9221 154.259 56.4873 157C60.0525 159.741 64.4233 161.226 68.9201 161.226C73.4168 161.226 77.7876 159.741 81.3528 157C84.918 154.259 87.4777 150.418 88.6341 146.072C88.9482 144.896 88.7823 143.643 88.1728 142.59C87.5633 141.536 86.5602 140.767 85.3841 140.453Z" fill="black"/>
<path d="M118.482 38.312C119.699 38.312 120.866 37.8285 121.727 36.9679C122.588 36.1073 123.071 34.9401 123.071 33.723V4.589C123.071 3.37192 122.588 2.20469 121.727 1.34409C120.866 0.483483 119.699 0 118.482 0C117.265 0 116.098 0.483483 115.237 1.34409C114.377 2.20469 113.893 3.37192 113.893 4.589V33.723C113.893 34.9401 114.377 36.1073 115.237 36.9679C116.098 37.8285 117.265 38.312 118.482 38.312Z" fill="black"/>
<path d="M118.484 45.3496C117.422 45.3489 116.392 45.7166 115.57 46.3901C114.749 47.0636 114.186 48.0012 113.978 49.0431C113.77 50.0851 113.93 51.1668 114.43 52.1041C114.931 53.0414 115.74 53.7761 116.722 54.1832C117.703 54.5903 118.795 54.6444 119.812 54.3365C120.829 54.0285 121.708 53.3775 122.298 52.4943C122.889 51.6112 123.155 50.5505 123.051 49.4932C122.947 48.4358 122.48 47.4471 121.729 46.6956C120.867 45.8371 119.701 45.3534 118.484 45.3496Z" fill="black"/>
<path d="M84.0281 48.2126C84.4527 48.6457 84.959 48.9902 85.5176 49.2264C86.0763 49.4626 86.6762 49.5857 87.2827 49.5886C87.8892 49.5915 88.4902 49.4741 89.0511 49.2433C89.6119 49.0125 90.1215 48.6728 90.5503 48.2438C90.979 47.8148 91.3185 47.3051 91.5491 46.7442C91.7796 46.1832 91.8967 45.5821 91.8935 44.9756C91.8904 44.3691 91.767 43.7692 91.5305 43.2107C91.2941 42.6522 90.9493 42.1461 90.5161 41.7216L78.7991 30.0136C78.3743 29.5807 77.8679 29.2363 77.3092 29.0003C76.7505 28.7643 76.1506 28.6414 75.5441 28.6387C74.9376 28.636 74.3366 28.7535 73.7758 28.9845C73.215 29.2155 72.7055 29.5554 72.2769 29.9845C71.8483 30.4136 71.509 30.9234 71.2786 31.4844C71.0482 32.0455 70.9313 32.6466 70.9346 33.2531C70.938 33.8596 71.0616 34.4594 71.2982 35.0179C71.5347 35.5763 71.8797 36.0823 72.3131 36.5066L84.0281 48.2126Z" fill="black"/>
<path d="M148.963 50.3277C149.566 50.3285 150.164 50.2102 150.721 49.9795C151.278 49.7489 151.784 49.4105 152.21 48.9837L164.665 36.5167C165.091 36.0904 165.429 35.5844 165.66 35.0276C165.89 34.4707 166.008 33.8739 166.008 33.2713C166.008 32.6686 165.889 32.0719 165.658 31.5152C165.428 30.9585 165.089 30.4527 164.663 30.0267C164.237 29.6007 163.731 29.2628 163.174 29.0324C162.617 28.8019 162.02 28.6834 161.418 28.6836C160.815 28.6838 160.218 28.8027 159.662 29.0335C159.105 29.2643 158.599 29.6024 158.173 30.0287L145.717 42.4957C145.076 43.1377 144.639 43.9554 144.463 44.8455C144.286 45.7355 144.377 46.658 144.725 47.4962C145.072 48.3344 145.661 49.0508 146.415 49.5548C147.17 50.0588 148.057 50.3278 148.964 50.3277H148.963Z" fill="black"/>
<path d="M233.531 112.63C230.393 100.941 224.19 90.3017 215.563 81.8125C206.937 73.3234 196.199 67.2925 184.461 64.3432C172.722 61.394 160.409 61.6334 148.794 65.0368C137.179 68.4403 126.684 74.8841 118.394 83.7023C109.067 73.785 96.9745 66.8996 83.6859 63.9392C70.3973 60.9788 56.5258 62.08 43.8708 67.1C31.2157 72.1201 20.3613 80.8273 12.7156 92.092C5.06995 103.357 0.985856 116.659 0.993174 130.273C1.00049 143.888 5.09889 157.186 12.7567 168.442C20.4145 179.699 31.2782 188.394 43.9386 193.401C56.5991 198.407 70.4718 199.493 83.7572 196.519C97.0426 193.544 109.127 186.646 118.444 176.718C128.806 187.746 142.553 194.997 157.505 197.321C172.458 199.645 187.758 196.909 200.977 189.547C214.197 182.185 224.58 170.618 230.477 156.683C236.375 142.748 237.45 127.243 233.531 112.627V112.63ZM68.9211 188.983C59.1332 188.983 49.5004 186.537 40.898 181.868C32.2957 177.199 24.9964 170.454 19.6636 162.246C14.3307 154.039 11.1333 144.629 10.3618 134.871C9.59033 125.114 11.2693 115.318 15.2461 106.375C19.2229 97.4309 25.3715 89.6228 33.1332 83.6596C40.8949 77.6964 50.0237 73.7673 59.69 72.2291C69.3563 70.691 79.2537 71.5926 88.483 74.8522C97.7122 78.1117 105.981 83.6257 112.537 90.8933C111.32 92.6153 110.176 94.4006 109.104 96.2493C102.601 107.518 99.4699 120.417 100.083 133.413C100.696 146.409 105.027 158.956 112.562 169.562C107.065 175.689 100.336 180.586 92.8155 183.933C85.295 187.28 77.1526 189.001 68.9211 188.983ZM183.128 186.951C171.906 189.958 160.044 189.57 149.043 185.836C138.041 182.101 128.394 175.188 121.321 165.971C114.249 156.754 110.068 145.646 109.308 134.053C108.548 122.46 111.243 110.902 117.052 100.84C118.486 98.3554 120.097 95.9775 121.874 93.7253C121.951 93.6373 122.021 93.5473 122.089 93.4543C127.897 86.2134 135.338 80.4517 143.802 76.6414C152.266 72.8312 161.512 71.0808 170.784 71.5338C180.055 71.9868 189.087 74.6302 197.139 79.2474C205.191 83.8646 212.035 90.3242 217.109 98.0968C222.183 105.869 225.343 114.734 226.331 123.963C227.318 133.193 226.104 142.525 222.788 151.195C219.473 159.865 214.15 167.626 207.256 173.841C200.362 180.057 192.094 184.551 183.128 186.954V186.951Z" fill="black"/>
<path d="M154.482 121.212C153.778 118.686 152.105 116.54 149.828 115.24C147.55 113.941 144.851 113.592 142.318 114.271C139.785 114.949 137.622 116.6 136.299 118.864C134.976 121.128 134.601 123.823 135.253 126.363C135.568 127.539 136.337 128.541 137.391 129.15C138.445 129.759 139.697 129.924 140.873 129.609C142.049 129.294 143.051 128.525 143.66 127.471C144.269 126.417 144.434 125.165 144.119 123.989C144.066 123.79 144.094 123.578 144.197 123.4C144.3 123.222 144.469 123.091 144.667 123.037C144.866 122.985 145.077 123.014 145.255 123.116C145.432 123.219 145.562 123.388 145.616 123.586C145.772 124.168 146.041 124.714 146.408 125.192C146.775 125.67 147.232 126.072 147.754 126.373C148.276 126.674 148.852 126.87 149.449 126.949C150.047 127.028 150.654 126.988 151.236 126.832C151.818 126.676 152.364 126.407 152.842 126.04C153.32 125.674 153.722 125.216 154.023 124.694C154.325 124.173 154.52 123.596 154.599 122.999C154.678 122.401 154.638 121.794 154.482 121.212Z" fill="black"/>
<path d="M191.386 104.038C189.681 103.053 187.723 102.596 185.758 102.724C183.793 102.853 181.911 103.561 180.349 104.759C178.787 105.958 177.616 107.592 176.983 109.457C176.35 111.321 176.284 113.331 176.794 115.233C177.109 116.408 177.878 117.411 178.932 118.019C179.986 118.628 181.239 118.793 182.415 118.478C183.591 118.163 184.593 117.393 185.202 116.339C185.81 115.285 185.975 114.032 185.66 112.857C185.633 112.758 185.626 112.656 185.64 112.555C185.653 112.454 185.687 112.356 185.739 112.269C185.842 112.091 186.011 111.961 186.21 111.908C186.408 111.855 186.62 111.883 186.798 111.986C186.886 112.036 186.963 112.103 187.025 112.184C187.087 112.264 187.132 112.356 187.158 112.455C187.314 113.037 187.583 113.582 187.95 114.061C188.316 114.539 188.774 114.94 189.296 115.242C189.817 115.543 190.394 115.739 190.991 115.817C191.589 115.896 192.196 115.856 192.778 115.701C193.36 115.545 193.906 115.276 194.384 114.909C194.862 114.542 195.263 114.085 195.565 113.563C195.866 113.041 196.062 112.465 196.141 111.867C196.219 111.27 196.18 110.663 196.024 110.081C195.689 108.817 195.107 107.632 194.31 106.594C193.514 105.557 192.52 104.688 191.386 104.038Z" fill="black"/>
<path d="M186.381 135.628C185.206 135.943 184.204 136.712 183.595 137.766C182.987 138.82 182.822 140.072 183.136 141.247C183.508 142.635 183.603 144.083 183.416 145.508C183.228 146.932 182.762 148.306 182.044 149.551C181.326 150.795 180.369 151.886 179.229 152.761C178.089 153.636 176.788 154.277 175.4 154.649C174.012 155.022 172.565 155.117 171.14 154.929C169.715 154.742 168.342 154.275 167.097 153.557C165.853 152.839 164.762 151.882 163.887 150.742C163.012 149.602 162.37 148.301 161.998 146.913C161.683 145.738 160.914 144.735 159.861 144.127C158.807 143.518 157.554 143.353 156.378 143.667C155.203 143.982 154.2 144.751 153.591 145.805C152.983 146.859 152.817 148.112 153.132 149.287C154.279 153.56 156.8 157.336 160.306 160.032C163.813 162.729 168.109 164.197 172.532 164.209C175.62 164.21 178.667 163.5 181.437 162.135C184.208 160.77 186.627 158.787 188.509 156.338C190.39 153.889 191.684 151.041 192.289 148.013C192.895 144.984 192.796 141.858 192.001 138.873C191.686 137.698 190.917 136.696 189.863 136.088C188.809 135.479 187.557 135.314 186.381 135.628Z" fill="black"/>
</svg>
