<svg width="20" height="20" viewBox="0 0 20 20" fill="none" xmlns="http://www.w3.org/2000/svg">
<path d="M8.97591 2.59415H3.39291C3.07706 2.58832 2.76326 2.64623 2.4703 2.76442C2.17733 2.88262 1.91119 3.05866 1.68781 3.28205C1.46443 3.50543 1.28838 3.77156 1.17018 4.06453C1.05199 4.3575 0.994078 4.6713 0.999913 4.98716V16.1532C0.994078 16.469 1.05199 16.7828 1.17018 17.0758C1.28838 17.3687 1.46443 17.6349 1.68781 17.8582C1.91119 18.0816 2.17733 18.2577 2.4703 18.3759C2.76326 18.4941 3.07706 18.552 3.39291 18.5461H14.5589C14.8748 18.552 15.1886 18.4941 15.4815 18.3759C15.7745 18.2577 16.0406 18.0816 16.264 17.8582C16.4874 17.6349 16.6634 17.3687 16.7816 17.0758C16.8998 16.7828 16.9577 16.469 16.9519 16.1532V10.5701" stroke="#152D4A" stroke-width="2" stroke-miterlimit="10" stroke-linecap="round" stroke-linejoin="round"/>
<path d="M16 7C17.6569 7 19 5.65685 19 4C19 2.34315 17.6569 1 16 1C14.3431 1 13 2.34315 13 4C13 5.65685 14.3431 7 16 7Z" stroke="#152D4A" stroke-width="2" stroke-miterlimit="10" stroke-linecap="round" stroke-linejoin="round"/>
</svg>
