<svg width="19" height="22" viewBox="0 0 19 22" fill="none" xmlns="http://www.w3.org/2000/svg">
<path d="M18.679 3.99954V13.5995C18.6557 14.2142 18.4995 14.8166 18.2213 15.3652C17.943 15.9138 17.5492 16.3956 17.067 16.7775L11.122 21.0775C10.5964 21.4359 9.9751 21.6276 9.339 21.6276C8.7029 21.6276 8.08156 21.4359 7.556 21.0775L1.613 16.7775C1.1312 16.3952 0.737656 15.9133 0.45927 15.3648C0.180884 14.8163 0.0242234 14.2142 0 13.5995V3.99954C0.0135312 3.36686 0.218889 2.7532 0.588889 2.23981C0.958888 1.72642 1.47608 1.3375 2.072 1.12454C2.72997 0.890144 3.40321 0.701036 4.087 0.558539C7.54739 -0.18618 11.1266 -0.18618 14.587 0.558539C15.2729 0.701335 15.9481 0.891116 16.608 1.12654C17.2017 1.34228 17.7167 1.73166 18.086 2.24406C18.4554 2.75645 18.662 3.36813 18.679 3.99954ZM1.966 3.99954V13.5995C2.01504 14.2122 2.30225 14.7812 2.766 15.1845L8.71 19.4845C8.8998 19.5996 9.11753 19.6605 9.3395 19.6605C9.56147 19.6605 9.7792 19.5996 9.969 19.4845L15.913 15.1845C16.3783 14.7824 16.6659 14.2127 16.713 13.5995V3.99954C16.6975 3.78087 16.622 3.5707 16.4948 3.39216C16.3676 3.21362 16.1936 3.07361 15.992 2.98754L15.931 2.96654C15.7877 2.91387 15.643 2.86554 15.497 2.82154C15.059 2.68821 14.6157 2.57221 14.167 2.47354C10.9846 1.78995 7.69337 1.78995 4.511 2.47354C4.063 2.57087 3.61967 2.68687 3.181 2.82154C2.96 2.88954 2.813 2.94054 2.747 2.96654L2.674 2.99954C2.47522 3.08468 2.30387 3.22316 2.17891 3.39965C2.05396 3.57614 1.98027 3.78376 1.966 3.99954ZM6.1 9.62654L7.863 11.3895L12.575 6.67754C12.6657 6.5839 12.7742 6.50925 12.8941 6.45793C13.0139 6.40662 13.1428 6.37966 13.2732 6.37864C13.4036 6.37761 13.5329 6.40254 13.6535 6.45196C13.7742 6.50139 13.8838 6.57432 13.976 6.66652C14.0682 6.75872 14.1412 6.86834 14.1906 6.989C14.24 7.10966 14.2649 7.23895 14.2639 7.36934C14.2629 7.49972 14.2359 7.6286 14.1846 7.74847C14.1333 7.86834 14.0586 7.9768 13.965 8.06754L8.56 13.4745C8.37566 13.6588 8.12567 13.7624 7.865 13.7624C7.60433 13.7624 7.35434 13.6588 7.17 13.4745L4.712 11.0165C4.61836 10.9258 4.54371 10.8173 4.4924 10.6975C4.44108 10.5776 4.41412 10.4487 4.4131 10.3183C4.41207 10.188 4.437 10.0587 4.48642 9.938C4.53585 9.81734 4.60878 9.70772 4.70098 9.61552C4.79318 9.52332 4.9028 9.45039 5.02346 9.40096C5.14412 9.35154 5.27341 9.32661 5.4038 9.32764C5.53418 9.32866 5.66306 9.35562 5.78293 9.40693C5.9028 9.45825 6.01126 9.5329 6.102 9.62654H6.1Z" fill="#152D4A"/>
</svg>
