<svg width="135" height="50" viewBox="0 0 135 50" fill="none" xmlns="http://www.w3.org/2000/svg">
<path d="M132.819 37.1284L132.484 30.3104C132.983 29.0869 133.019 27.7233 132.584 26.4754C132.253 25.6741 131.751 24.9547 131.112 24.3675C130.474 23.7803 129.716 23.3393 128.89 23.0754C124.642 21.4064 114.08 17.9374 112.864 17.5384C112.751 17.5009 112.635 17.4758 112.517 17.4634L103.373 16.5164L83.925 6.77541C83.463 6.54141 75.905 2.88841 62.282 1.49941C62.0959 1.31506 61.8717 1.17358 61.6253 1.0848C61.3788 0.996022 61.1159 0.962106 60.855 0.985435C60.5911 1.02932 60.3421 1.13751 60.13 1.30044C52.5287 0.721125 44.8886 0.901002 37.323 1.83742L14.672 3.62545C14.4973 3.63691 14.3256 3.67707 14.164 3.74441L8.804 5.93642C8.51261 6.05615 8.26041 6.25479 8.07576 6.51003C7.89111 6.76527 7.78134 7.06697 7.75879 7.38119C7.73624 7.69541 7.80181 8.00973 7.94812 8.28872C8.09444 8.56771 8.3157 8.8003 8.58701 8.96041L9.843 9.69344C7.72342 11.7779 6.01741 14.2446 4.815 16.9634C4.71263 17.1912 4.66143 17.4387 4.66501 17.6884L4.86501 27.5224L3.929 29.4665L2.315 29.9744C1.96104 30.0869 1.65393 30.3128 1.44104 30.6171C1.22815 30.9214 1.12132 31.2873 1.13701 31.6584L1.42 38.3584C1.43579 38.7357 1.57785 39.0968 1.82338 39.3836C2.06891 39.6705 2.40369 39.8666 2.774 39.9405L17.844 42.9784L19.152 43.0164C19.9242 44.8525 21.2088 46.4274 22.8523 47.5529C24.4957 48.6784 26.4284 49.3068 28.4195 49.3631C30.4106 49.4194 32.3758 48.9012 34.0802 47.8704C35.7847 46.8397 37.1562 45.3399 38.031 43.5504H96.985C97.8341 45.2956 99.1573 46.7665 100.803 47.7947C102.449 48.8229 104.351 49.367 106.292 49.3646C108.233 49.3622 110.134 48.8135 111.777 47.7812C113.421 46.7488 114.74 45.2747 115.585 43.5274L132.405 43.1574C132.714 43.1511 133.015 43.0602 133.276 42.8947C133.537 42.7291 133.747 42.4952 133.884 42.2184C134.41 41.1314 134.486 39.881 134.095 38.7384C133.838 38.0876 133.394 37.5274 132.819 37.1284ZM106.281 45.9834C104.89 45.984 103.531 45.5722 102.375 44.8001C101.218 44.028 100.317 42.9303 99.784 41.6458C99.2514 40.3613 99.1118 38.9476 99.3827 37.5838C99.6536 36.2199 100.323 34.967 101.306 33.9835C102.289 33.0001 103.542 32.3302 104.905 32.0587C106.269 31.7872 107.683 31.9263 108.968 32.4583C110.252 32.9903 111.35 33.8913 112.123 35.0474C112.896 36.2036 113.308 37.5629 113.308 38.9535C113.306 40.8168 112.564 42.6032 111.247 43.921C109.93 45.2388 108.143 45.9805 106.28 45.9834H106.281ZM106.281 28.5424C103.52 28.5448 100.873 29.6424 98.9209 31.5942C96.9685 33.546 95.8702 36.1927 95.867 38.9535C95.8833 39.36 95.9247 39.765 95.991 40.1664H64.741C67.141 33.7754 65.125 23.7454 65.027 23.2834C64.9839 23.0773 64.9003 22.8819 64.781 22.7084L102.568 25.3514H102.886C104.622 25.3514 107.637 25.0244 108.31 22.8514C108.425 22.4326 108.447 21.9938 108.374 21.5656C108.301 21.1375 108.135 20.7306 107.888 20.3734L110.988 20.6944C113.112 23.6486 115.821 26.1337 118.948 27.9947C122.074 29.8557 125.551 31.0529 129.16 31.5114L129.489 38.2434C129.505 38.5739 129.617 38.8925 129.813 39.1593C130.008 39.4261 130.278 39.6293 130.589 39.7434C130.64 39.7625 130.691 39.7849 130.739 39.8104L116.567 40.1194C116.629 39.733 116.668 39.3433 116.685 38.9524C116.682 36.1934 115.585 33.5481 113.634 31.5967C111.684 29.6453 109.039 28.5469 106.28 28.5424H106.281ZM39.024 40.1664C39.1904 38.7605 39.0676 37.3354 38.6632 35.9787C38.2588 34.6219 37.5812 33.3622 36.6722 32.2769C35.7631 31.1915 34.6418 30.3035 33.3771 29.6673C32.1123 29.0311 30.7309 28.6602 29.3176 28.5774C27.9043 28.4946 26.4889 28.7016 25.1585 29.1857C23.8281 29.6698 22.6108 30.4208 21.5812 31.3925C20.5516 32.3643 19.7316 33.5362 19.1715 34.8364C18.6113 36.1367 18.3229 37.5377 18.324 38.9535C18.324 39.1875 18.376 39.4044 18.39 39.6314H18.225L4.73801 36.8904L4.56 32.7984L5.64 32.4574C5.86118 32.3874 6.06569 32.2728 6.24094 32.1208C6.41618 31.9688 6.55846 31.7825 6.659 31.5734L8.08 28.6074C8.19251 28.3701 8.24897 28.1101 8.24501 27.8474L8.228 26.9754L12.011 26.2934C12.3476 26.2318 12.6577 26.0701 12.9009 25.8294C13.1441 25.5888 13.309 25.2803 13.374 24.9444L13.822 22.5734L17.449 19.8014C17.6503 19.6468 17.8144 19.4491 17.9293 19.2227C18.0442 18.9964 18.107 18.7472 18.113 18.4934C18.119 18.2401 18.0675 17.9887 17.9624 17.7582C17.8573 17.5277 17.7012 17.324 17.506 17.1624L13.038 13.4254C12.6947 13.1399 12.2529 13.0009 11.808 13.0384C11.5529 13.0668 11.3079 13.1537 11.092 13.2924C11.8536 12.3793 12.7248 11.5635 13.686 10.8634C13.926 10.7045 14.1222 10.488 14.2569 10.2336C14.3916 9.97925 14.4604 9.69522 14.457 9.40743C14.4508 9.11818 14.3708 8.83531 14.2247 8.58559C14.0786 8.33588 13.8711 8.12758 13.622 7.98043L13.244 7.76144L15.196 6.96145L23.245 6.3254L18.081 8.62545C17.8675 8.72124 17.6759 8.85974 17.518 9.03243C17.1529 9.44386 16.8814 9.92967 16.7224 10.4563C16.5634 10.9829 16.5206 11.5377 16.597 12.0824C16.7281 12.6489 16.9949 13.1751 17.3742 13.6158C17.7536 14.0565 18.2343 14.3985 18.775 14.6124C21.1 15.7324 29.796 20.0825 29.882 20.1255C30.0814 20.2244 30.298 20.2841 30.52 20.3014L62.133 22.5144C62.0703 22.5679 62.0124 22.6269 61.96 22.6905C61.8375 22.8752 61.7532 23.0824 61.712 23.3002C61.6708 23.5179 61.6735 23.7417 61.72 23.9584C61.743 24.0714 63.973 35.2014 61.035 40.1584L39.024 40.1664ZM28.737 45.9834C27.3466 45.9834 25.9874 45.5711 24.8314 44.7987C23.6753 44.0262 22.7742 42.9283 22.2421 41.6437C21.71 40.3591 21.5708 38.9456 21.8421 37.5819C22.1133 36.2182 22.7829 34.9656 23.7661 33.9824C24.7492 32.9993 26.0018 32.3297 27.3655 32.0585C28.7292 31.7872 30.1427 31.9265 31.4273 32.4586C32.7118 32.9907 33.8098 33.8917 34.5822 35.0478C35.3547 36.2038 35.767 37.563 35.767 38.9535C35.7646 40.8174 35.0231 42.6042 33.705 43.9221C32.3869 45.24 30.5999 45.9813 28.736 45.9834H28.737ZM8.05301 18.0064C8.67965 16.6695 9.44841 15.4038 10.346 14.2314C10.2502 14.549 10.2494 14.8878 10.3438 15.2058C10.4381 15.5239 10.6235 15.8074 10.877 16.0214L13.725 18.4044L11.26 20.2884C10.9289 20.5408 10.7033 20.9072 10.627 21.3164L10.275 23.1824L8.164 23.5604L8.05301 18.0064ZM37.653 5.1954C44.963 4.29151 52.3448 4.11935 59.689 4.68142L61.815 19.1134L31.095 16.9614L30.229 16.5284C27.789 15.3124 22.076 12.4624 20.251 11.5814C20.162 11.5384 20.089 11.4974 20.037 11.4654L33.337 5.5364L37.653 5.1954ZM102.034 19.6234C103.025 20.2354 103.95 20.9496 104.792 21.7544C104.118 21.9249 103.422 21.999 102.727 21.9744L65.269 19.3524L63.16 5.02145C75.509 6.46245 82.311 9.74045 82.412 9.78945L102.034 19.6234ZM117.26 22.5584C120.827 23.7584 125.289 25.2874 127.654 26.2174C128.027 26.3191 128.374 26.4967 128.675 26.7392C128.976 26.9817 129.223 27.2838 129.401 27.6264C129.463 27.794 129.497 27.9707 129.501 28.1494C124.953 27.5523 120.689 25.6047 117.26 22.5584Z" fill="#2C2E3D" stroke="#152D4A"/>
<path d="M75.635 24.9806L69.564 24.5806C69.3508 24.5615 69.1358 24.5853 68.9319 24.6508C68.728 24.7162 68.5393 24.8219 68.377 24.9616C68.1961 25.1085 68.047 25.2906 67.9387 25.4969C67.8304 25.7032 67.7652 25.9293 67.747 26.1616C67.7188 26.6085 67.869 27.0484 68.1646 27.3847C68.4603 27.721 68.8772 27.9263 69.324 27.9556L75.406 28.3556L75.524 28.3616C75.9617 28.3601 76.3816 28.1888 76.6955 27.8839C77.0094 27.5789 77.1929 27.1641 77.2071 26.7267C77.2214 26.2893 77.0653 25.8634 76.772 25.5386C76.4786 25.2139 76.0707 25.0157 75.634 24.9856L75.635 24.9806Z" fill="#2C2E3D" stroke="#152D4A"/>
<path d="M35.378 22.5846L29.2899 22.1846C29.0677 22.1675 28.8443 22.1949 28.6328 22.2653C28.4213 22.3357 28.2259 22.4477 28.0583 22.5945C27.8906 22.7414 27.754 22.9203 27.6564 23.1207C27.5588 23.3211 27.5022 23.539 27.49 23.7616C27.4754 23.9827 27.5046 24.2045 27.5759 24.4143C27.6472 24.6241 27.7591 24.8179 27.9053 24.9844C28.0515 25.1509 28.229 25.287 28.4278 25.3848C28.6267 25.4827 28.8428 25.5404 29.0639 25.5546L35.1459 25.9546L35.2669 25.9606C35.7044 25.9583 36.1238 25.7865 36.4372 25.4813C36.7505 25.1761 36.9334 24.7614 36.9472 24.3242C36.9611 23.887 36.8049 23.4614 36.5115 23.137C36.2181 22.8126 35.8103 22.6146 35.3739 22.5846H35.378Z" fill="#2C2E3D" stroke="#152D4A"/>
</svg>
