
<svg width="33" height="21" viewBox="0 0 33 21" fill="none" xmlns="http://www.w3.org/2000/svg">
<mask id="mask0_6_12033" style="mask-type:alpha" maskUnits="userSpaceOnUse" x="0" y="0" width="33" height="21">
<path d="M32.71 0H0V20.909H32.71V0Z" fill="white"/>
</mask>
<g mask="url(#mask0_6_12033)">
<path d="M32.397 16.5211V16.1211H32.297L32.179 16.3901L32.061 16.1211H31.961V16.5211H32.034V16.2211L32.145 16.4761H32.22L32.331 16.2201V16.5211H32.403H32.397ZM31.749 16.5211V16.1911H31.88V16.1211H31.546V16.1871H31.677V16.5211H31.749Z" fill="#F79410"/>
<path d="M20.777 18.2016H11.933V2.30664H20.778L20.777 18.2016Z" fill="#FF5F00"/>
<path d="M12.494 10.255C12.4927 8.72428 12.8397 7.21334 13.5086 5.83652C14.1775 4.4597 15.1509 3.25308 16.355 2.30799C14.8637 1.13574 13.0727 0.406717 11.1867 0.204244C9.30069 0.00177194 7.39576 0.334022 5.68965 1.16302C3.98354 1.99201 2.54509 3.2843 1.53871 4.89218C0.532344 6.50005 -0.00134277 8.35864 -0.00134277 10.2555C-0.00134277 12.1523 0.532344 14.0109 1.53871 15.6188C2.54509 17.2267 3.98354 18.519 5.68965 19.348C7.39576 20.177 9.30069 20.5092 11.1867 20.3067C13.0727 20.1043 14.8637 19.3752 16.355 18.203C15.1509 17.2579 14.1775 16.0513 13.5086 14.6745C12.8397 13.2976 12.4927 11.7867 12.494 10.256" fill="#EB001B"/>
<path d="M32.71 10.2541C32.7099 12.1506 32.1763 14.0089 31.1701 15.6165C30.1639 17.2242 28.7256 18.5163 27.0198 19.3452C25.314 20.1741 23.4094 20.5064 21.5236 20.3041C19.6379 20.1018 17.8471 19.373 16.356 18.201C17.5591 17.255 18.5318 16.0481 19.2007 14.6714C19.8695 13.2947 20.217 11.7841 20.217 10.2535C20.217 8.72298 19.8695 7.21238 19.2007 5.83567C18.5318 4.45897 17.5591 3.25209 16.356 2.30605C17.8471 1.13382 19.638 0.404789 21.5239 0.202301C23.4098 -0.000186592 25.3146 0.332037 27.0206 1.161C28.7266 1.98995 30.1649 3.2822 31.1712 4.89C32.1775 6.49781 32.7111 8.35631 32.711 10.253" fill="#F79E1B"/>
</g>
</svg>
