a<svg width="24" height="19" viewBox="0 0 24 19" fill="none" xmlns="http://www.w3.org/2000/svg">
<path d="M0.0429185 2.86C0.0194604 2.12546 0.288546 1.41165 0.791058 0.875389C1.29357 0.339126 1.98841 0.0242728 2.72292 0H20.9139C21.6481 0.0253177 22.3423 0.34049 22.8446 0.876517C23.3469 1.41254 23.6163 2.12575 23.5939 2.86V15.46C23.6174 16.1945 23.3483 16.9083 22.8458 17.4446C22.3433 17.9809 21.6484 18.2957 20.9139 18.32H2.72292C1.98841 18.2947 1.29389 17.9792 0.791538 17.4428C0.28919 16.9063 0.0199868 16.1926 0.0429185 15.458V2.86ZM21.4529 7.173L12.3699 13C12.2061 13.1062 12.0151 13.1627 11.8199 13.1627C11.6247 13.1627 11.4337 13.1062 11.2699 13L2.18692 7.17V15.455C2.18394 15.6017 2.23879 15.7438 2.33964 15.8504C2.44049 15.9571 2.57923 16.0198 2.72592 16.025H20.9139C20.9852 16.0251 21.0557 16.0105 21.1211 15.9821C21.1865 15.9537 21.2453 15.9122 21.2939 15.86C21.3951 15.7513 21.4519 15.6085 21.4529 15.46V7.172V7.173ZM20.5949 5.053C20.8419 4.85785 21.0457 4.61355 21.1934 4.33555C21.3411 4.05755 21.4295 3.75192 21.4529 3.438V2.86C21.4578 2.71382 21.4045 2.57166 21.3048 2.46464C21.2051 2.35763 21.0671 2.29447 20.9209 2.289H2.71592C2.56976 2.29447 2.43172 2.35763 2.33201 2.46464C2.2323 2.57166 2.17905 2.71382 2.18392 2.86V3.438C2.20802 3.75187 2.29677 4.05737 2.4446 4.33529C2.59242 4.61322 2.79613 4.85757 3.04292 5.053L11.8199 10.686L20.5949 5.053Z" fill="#152D4A"/>
</svg>
