
<svg width="18" height="24" viewBox="0 0 18 24" fill="none" xmlns="http://www.w3.org/2000/svg">
<path d="M4 5H10" stroke="#959DAD" stroke-width="2" stroke-miterlimit="10" stroke-linecap="round" stroke-linejoin="round"/>
<path d="M15 14H14V5C14.5304 5 15.0391 4.78929 15.4142 4.41422C15.7893 4.03914 16 3.53043 16 3C16 2.46957 15.7893 1.96086 15.4142 1.58578C15.0391 1.21071 14.5304 1 14 1H4C3.46957 1 2.96086 1.21071 2.58578 1.58578C2.21071 1.96086 2 2.46957 2 3C2 3.53043 2.21071 4.03914 2.58578 4.41422C2.96086 4.78929 3.46957 5 4 5V14H3C2.46957 14 1.96086 14.2107 1.58578 14.5858C1.21071 14.9609 1 15.4696 1 16C1 16.5304 1.21071 17.0391 1.58578 17.4142C1.96086 17.7893 2.46957 18 3 18H15C15.5304 18 16.0391 17.7893 16.4142 17.4142C16.7893 17.0391 17 16.5304 17 16C17 15.4696 16.7893 14.9609 16.4142 14.5858C16.0391 14.2107 15.5304 14 15 14Z" stroke="#959DAD" stroke-width="2" stroke-miterlimit="10" stroke-linecap="round" stroke-linejoin="round"/>
<path d="M4 14H14" stroke="#959DAD" stroke-width="2" stroke-miterlimit="10" stroke-linecap="round" stroke-linejoin="round"/>
<path d="M9 18V23" stroke="#959DAD" stroke-width="2" stroke-miterlimit="10" stroke-linecap="round" stroke-linejoin="round"/>
</svg>
